<svg width="20" height="21" viewBox="0 0 20 21" fill="none" xmlns="http://www.w3.org/2000/svg">
<path d="M15.34 4.0305C15.1027 4.0305 14.8707 4.10121 14.6733 4.23368C14.476 4.36616 14.3222 4.55446 14.2313 4.77476C14.1405 4.99507 14.1168 5.23748 14.1631 5.47136C14.2094 5.70523 14.3236 5.92006 14.4915 6.08867C14.6593 6.25729 14.8731 6.37211 15.1059 6.41863C15.3387 6.46515 15.5799 6.44128 15.7992 6.35002C16.0185 6.25877 16.2059 6.10424 16.3378 5.90597C16.4696 5.7077 16.54 5.4746 16.54 5.23615C16.54 4.91639 16.4136 4.60973 16.1885 4.38362C15.9635 4.15752 15.6583 4.0305 15.34 4.0305V4.0305ZM19.94 6.46189C19.9206 5.62828 19.7652 4.80352 19.48 4.02045C19.2257 3.35044 18.83 2.74374 18.32 2.24211C17.8248 1.72712 17.2196 1.33202 16.55 1.0867C15.7727 0.791472 14.9508 0.631773 14.12 0.614482C13.06 0.554199 12.72 0.554199 10 0.554199C7.28 0.554199 6.94 0.554199 5.88 0.614482C5.04915 0.631773 4.22734 0.791472 3.45 1.0867C2.78168 1.33451 2.17693 1.72927 1.68 2.24211C1.16743 2.73962 0.774176 3.34773 0.53 4.02045C0.236161 4.80145 0.07721 5.62713 0.0599999 6.46189C-5.58794e-08 7.52689 0 7.86849 0 10.6013C0 13.3341 -5.58794e-08 13.6757 0.0599999 14.7407C0.07721 15.5755 0.236161 16.4011 0.53 17.1821C0.774176 17.8549 1.16743 18.463 1.68 18.9605C2.17693 19.4733 2.78168 19.8681 3.45 20.1159C4.22734 20.4111 5.04915 20.5708 5.88 20.5881C6.94 20.6484 7.28 20.6484 10 20.6484C12.72 20.6484 13.06 20.6484 14.12 20.5881C14.9508 20.5708 15.7727 20.4111 16.55 20.1159C17.2196 19.8706 17.8248 19.4755 18.32 18.9605C18.8322 18.4607 19.2283 17.8535 19.48 17.1821C19.7652 16.3991 19.9206 15.5743 19.94 14.7407C19.94 13.6757 20 13.3341 20 10.6013C20 7.86849 20 7.52689 19.94 6.46189V6.46189ZM18.14 14.6201C18.1327 15.2579 18.0178 15.8898 17.8 16.4889C17.6403 16.9261 17.3839 17.3212 17.05 17.6443C16.7256 17.9764 16.3332 18.2335 15.9 18.3978C15.3037 18.6166 14.6748 18.7321 14.04 18.7394C13.04 18.7897 12.67 18.7997 10.04 18.7997C7.41 18.7997 7.04 18.7997 6.04 18.7394C5.38089 18.7518 4.72459 18.6499 4.1 18.438C3.68578 18.2653 3.31136 18.0088 3 17.6845C2.66809 17.3617 2.41484 16.9663 2.26 16.5291C2.01586 15.9214 1.88044 15.2752 1.86 14.6201C1.86 13.6154 1.8 13.2437 1.8 10.6013C1.8 7.95891 1.8 7.58717 1.86 6.58246C1.86448 5.93046 1.98295 5.28432 2.21 4.67351C2.38605 4.24943 2.65626 3.87141 3 3.56833C3.30381 3.22288 3.67929 2.94852 4.1 2.76456C4.70955 2.54357 5.352 2.42806 6 2.42296C7 2.42296 7.37 2.36268 10 2.36268C12.63 2.36268 13 2.36268 14 2.42296C14.6348 2.43027 15.2637 2.54578 15.86 2.76456C16.3144 2.93401 16.7223 3.20949 17.05 3.56833C17.3777 3.87695 17.6338 4.25428 17.8 4.67351C18.0223 5.28531 18.1373 5.93119 18.14 6.58246C18.19 7.58717 18.2 7.95891 18.2 10.6013C18.2 13.2437 18.19 13.6154 18.14 14.6201ZM10 5.44714C8.98581 5.44912 7.99496 5.7531 7.15265 6.32065C6.31035 6.8882 5.65438 7.69387 5.26763 8.63584C4.88089 9.57781 4.78072 10.6138 4.97979 11.613C5.17886 12.6121 5.66824 13.5296 6.38608 14.2494C7.10392 14.9692 8.01801 15.4591 9.01286 15.6571C10.0077 15.8552 11.0387 15.7526 11.9755 15.3622C12.9123 14.9718 13.7129 14.3111 14.2761 13.4638C14.8394 12.6164 15.14 11.6203 15.14 10.6013C15.1413 9.92322 15.0092 9.25158 14.7512 8.62499C14.4933 7.9984 14.1146 7.42924 13.6369 6.95023C13.1592 6.47123 12.5919 6.09184 11.9678 5.83388C11.3436 5.57592 10.6749 5.44449 10 5.44714V5.44714ZM10 13.947C9.34139 13.947 8.69757 13.7508 8.14995 13.3831C7.60234 13.0155 7.17552 12.493 6.92348 11.8816C6.67144 11.2703 6.6055 10.5976 6.73398 9.94859C6.86247 9.29959 7.17963 8.70344 7.64533 8.23554C8.11104 7.76764 8.70439 7.44899 9.35035 7.3199C9.99631 7.19081 10.6659 7.25706 11.2743 7.51029C11.8828 7.76352 12.4029 8.19234 12.7688 8.74254C13.1347 9.29273 13.33 9.93959 13.33 10.6013C13.33 11.0407 13.2439 11.4757 13.0765 11.8816C12.9092 12.2876 12.6639 12.6564 12.3547 12.9671C12.0454 13.2777 11.6784 13.5242 11.2743 13.6923C10.8703 13.8604 10.4373 13.947 10 13.947V13.947Z" fill="#1E1E1E"/>
</svg>
