<svg width="22" height="22" viewBox="0 0 22 22" fill="none" xmlns="http://www.w3.org/2000/svg">
<path d="M16.5 7.60018C15.6049 7.60003 14.7236 7.82166 13.935 8.24528C13.863 8.05559 13.735 7.89229 13.568 7.77707C13.401 7.66185 13.2029 7.60015 13 7.60018H9C8.73479 7.60018 8.48043 7.70555 8.2929 7.89312C8.10536 8.08069 8 8.33508 8 8.60034V20.6023C8 20.8675 8.10536 21.1219 8.2929 21.3095C8.48043 21.4971 8.73479 21.6024 9 21.6024H13C13.2652 21.6024 13.5196 21.4971 13.7071 21.3095C13.8946 21.1219 14 20.8675 14 20.6023V15.1014C14 14.8361 14.1054 14.5817 14.2929 14.3942C14.4804 14.2066 14.7348 14.1012 15 14.1012C15.2652 14.1012 15.5196 14.2066 15.7071 14.3942C15.8946 14.5817 16 14.8361 16 15.1014V20.6023C16 20.8675 16.1054 21.1219 16.2929 21.3095C16.4804 21.4971 16.7348 21.6024 17 21.6024H21C21.2652 21.6024 21.5196 21.4971 21.7071 21.3095C21.8946 21.1219 22 20.8675 22 20.6023V13.1011C21.9981 11.6427 21.4181 10.2446 20.387 9.2134C19.356 8.18218 17.9581 7.60203 16.5 7.60018V7.60018ZM20 19.6021H18V15.1014C18 14.3056 17.6839 13.5424 17.1213 12.9797C16.5587 12.417 15.7957 12.1009 15 12.1009C14.2044 12.1009 13.4413 12.417 12.8787 12.9797C12.3161 13.5424 12 14.3056 12 15.1014V19.6021H10V9.6005H12V10.3036C11.9999 10.5109 12.0642 10.7131 12.184 10.8823C12.3039 11.0514 12.4733 11.1792 12.6689 11.2478C12.8645 11.3165 13.0765 11.3226 13.2758 11.2655C13.475 11.2083 13.6516 11.0906 13.781 10.9287C14.2299 10.3587 14.8456 9.94318 15.5421 9.74007C16.2386 9.53696 16.9811 9.55644 17.6659 9.79578C18.3508 10.0351 18.9439 10.4824 19.3623 11.0751C19.7807 11.6679 20.0037 12.3765 20 13.1021V19.6021ZM6 7.60018H2C1.73479 7.60018 1.48043 7.70555 1.2929 7.89312C1.10536 8.08069 1 8.33508 1 8.60034V20.6023C1 20.8675 1.10536 21.1219 1.2929 21.3095C1.48043 21.4971 1.73479 21.6024 2 21.6024H6C6.26522 21.6024 6.51957 21.4971 6.70711 21.3095C6.89464 21.1219 7 20.8675 7 20.6023V8.60034C7 8.33508 6.89464 8.08069 6.70711 7.89312C6.51957 7.70555 6.26522 7.60018 6 7.60018ZM5 19.6021H3V9.6005H5V19.6021ZM4.015 0.141972C3.57709 0.115287 3.13834 0.178023 2.72545 0.32636C2.31255 0.474697 1.93417 0.705531 1.61333 1.00481C1.29249 1.30408 1.03591 1.66554 0.859208 2.06717C0.682508 2.4688 0.589387 2.90219 0.585514 3.34097C0.581641 3.77974 0.667098 4.21471 0.836682 4.6194C1.00627 5.02408 1.25643 5.39001 1.57193 5.69491C1.88744 5.9998 2.26169 6.23728 2.6719 6.39289C3.08211 6.54849 3.51969 6.61897 3.958 6.60002H3.986C4.42416 6.62505 4.86282 6.5606 5.27527 6.4106C5.68772 6.26059 6.06531 6.02817 6.38504 5.72749C6.70477 5.42681 6.95995 5.06417 7.13502 4.66166C7.31009 4.25916 7.4014 3.82522 7.40337 3.38628C7.40534 2.94734 7.31794 2.5126 7.14649 2.10854C6.97504 1.70448 6.72313 1.33956 6.40611 1.03602C6.08909 0.73248 5.7136 0.496673 5.30252 0.342967C4.89143 0.18926 4.45337 0.120873 4.015 0.141972V0.141972ZM3.986 4.59969H3.958C3.78505 4.62081 3.60957 4.60469 3.44335 4.55242C3.27714 4.50015 3.12402 4.41292 2.99427 4.29661C2.86452 4.18029 2.76115 4.03756 2.69108 3.87801C2.62101 3.71845 2.58586 3.54575 2.588 3.37149C2.588 2.62437 3.148 2.1423 4.015 2.1423C4.18961 2.11931 4.36712 2.13398 4.53559 2.1853C4.70407 2.23663 4.85961 2.32343 4.99175 2.43987C5.1239 2.55632 5.2296 2.6997 5.30174 2.86039C5.37388 3.02108 5.41079 3.19535 5.41 3.37149C5.41 4.11762 4.85 4.59969 3.985 4.59969H3.986Z" fill="#1E1E1E"/>
</svg>
