<svg width="152" height="61" viewBox="0 0 152 61" fill="none" xmlns="http://www.w3.org/2000/svg">
<path d="M48.8587 15.6403C46.875 18.1789 44.6138 20.4817 42.1168 22.521C42.089 22.5348 42.0752 22.5626 42.0613 22.6042C42.0474 22.6319 42.0335 22.6597 42.0335 22.7013V54.3441C42.0335 54.5938 41.9503 54.8435 41.7977 55.0516C41.6451 55.2596 41.437 55.4122 41.1873 55.4816L41.1596 55.4955C40.9792 55.551 40.785 55.5648 40.6047 55.5371C40.4243 55.5093 40.244 55.44 40.0914 55.329C39.9388 55.218 39.814 55.0654 39.7307 54.899C39.6475 54.7325 39.6059 54.5383 39.6059 54.3579V24.8515C39.6059 24.8099 39.592 24.7683 39.5781 24.7405C39.5504 24.7128 39.5226 24.6712 39.4949 24.6573C39.4533 24.6434 39.4255 24.6295 39.3839 24.6295C39.3423 24.6295 39.3007 24.6434 39.2729 24.6712C35.9713 26.9462 32.3645 28.7496 28.5774 30.0398C28.5358 30.0536 28.4941 30.0814 28.4664 30.123C28.4387 30.1646 28.4248 30.2062 28.4248 30.2478V55.8007C28.4248 55.981 28.3832 56.1475 28.3138 56.3139C28.2444 56.4804 28.1335 56.6191 27.9947 56.7301C27.856 56.8411 27.7034 56.9243 27.5231 56.9659C27.3566 57.0076 27.1763 57.0076 26.9959 56.9798L26.9543 56.9659C26.8572 56.9521 26.774 56.9243 26.6907 56.8827C26.2468 56.6746 25.9971 56.2446 25.9971 55.8007C25.9971 52.9291 26.011 45.771 26.011 42.8994V31.1218C26.011 31.094 25.9971 31.0524 25.9833 31.0247C25.9694 30.9969 25.9416 30.9692 25.9139 30.9415C25.8862 30.9137 25.8584 30.8998 25.8168 30.8998C25.789 30.8998 25.7474 30.8998 25.7197 30.8998L25.6087 30.9276C22.5152 31.746 19.7685 33.5633 17.8125 36.0881C15.8565 38.6267 14.8022 41.7341 14.8022 44.9386V49.1419C14.8022 49.3778 14.7328 49.5997 14.608 49.8078C14.4831 50.002 14.3028 50.1546 14.0808 50.2517C13.8588 50.3488 13.623 50.3766 13.4011 50.335C13.1652 50.2933 12.9571 50.1824 12.7907 50.0298C8.03247 45.4519 5.0083 39.3758 4.23145 32.8281C3.4546 26.2804 4.96669 19.6633 8.53188 14.1005C12.0832 8.53765 17.4518 4.38982 23.7359 2.35059C29.9785 0.297487 36.7621 0.4917 42.9075 2.90548C38.0661 0.602678 32.7113 -0.354512 27.3705 0.117147C22.0296 0.588806 16.9246 2.47544 12.5687 5.59672C8.21281 8.71799 4.77248 12.9352 2.59452 17.8321C0.416565 22.7152 -0.415774 28.0976 0.194608 33.4246C0.80499 38.7516 2.83035 43.8011 6.04873 48.0877C9.26711 52.3603 13.5814 55.7036 18.5338 57.7428C23.4862 59.7959 28.8964 60.4756 34.1957 59.7265C39.4949 58.9774 44.5028 56.8272 48.7061 53.4979C49.3443 53.0678 50.2598 52.2632 51.0922 51.4864C52.41 50.2795 53.1591 48.5732 53.1591 46.7975V17.0553C53.1591 14.7941 50.3014 13.8091 48.9003 15.5848C48.8865 15.6125 48.8726 15.6264 48.8587 15.6403Z" fill="#3C8D3A"/>
<path d="M95.3308 21.9192V38.5005H91.4294L91.2343 34.2577C90.2914 35.8183 88.9909 37.005 87.3328 37.8178C85.7072 38.5981 83.7402 38.9882 81.4318 38.9882C78.4407 38.9882 75.8234 38.3217 73.5801 36.9887C71.3367 35.6557 69.5973 33.7537 68.3618 31.2828C67.1589 28.7794 66.5574 25.8207 66.5574 22.4069C66.5574 19.0256 67.1914 16.0995 68.4594 13.6286C69.7599 11.1251 71.5806 9.20691 73.9215 7.8739C76.2623 6.50838 78.9771 5.82562 82.0658 5.82562C85.3821 5.82562 88.0643 6.44336 90.1126 7.67883C92.1934 8.9143 93.8678 10.8325 95.1358 13.4335L90.3077 15.7256C89.69 13.97 88.6821 12.637 87.284 11.7266C85.886 10.8163 84.1628 10.3611 82.1146 10.3611C79.0584 10.3611 76.6037 11.434 74.7505 13.5798C72.9298 15.6931 72.0195 18.6355 72.0195 22.4069C72.0195 26.3084 72.8811 29.2995 74.6042 31.3803C76.3274 33.4611 78.8308 34.5015 82.1146 34.5015C84.6505 34.5015 86.7151 33.8675 88.3082 32.5996C89.9013 31.3316 90.6978 29.4946 90.6978 27.0887V26.1621H81.3343V21.9192H95.3308ZM111.572 26.1621V38.5005H106.354V26.1621L94.8935 6.31331H100.697L106.452 16.6522L108.988 21.4803L111.524 16.6522L117.229 6.31331H123.082L111.572 26.1621ZM123.865 6.31331H136.544C140.316 6.31331 143.112 7.07735 144.933 8.60543C146.786 10.1335 147.712 12.3118 147.712 15.1404C147.712 16.8961 147.209 18.4242 146.201 19.7247C145.193 21.0252 143.778 21.838 141.958 22.1631V22.2119C143.974 22.537 145.567 23.3823 146.737 24.7478C147.94 26.1133 148.542 27.7227 148.542 29.5759C148.542 32.372 147.517 34.5666 145.469 36.1597C143.421 37.7203 140.511 38.5005 136.74 38.5005H123.865V6.31331ZM136.154 20.1636C140.251 20.1636 142.299 18.5867 142.299 15.433C142.299 12.2793 140.251 10.7025 136.154 10.7025H128.985V20.1636H136.154ZM136.983 34.1601C138.999 34.1601 140.527 33.7537 141.568 32.9409C142.608 32.0956 143.128 30.8927 143.128 29.3321C143.128 27.7715 142.608 26.5848 141.568 25.772C140.527 24.9266 138.999 24.504 136.983 24.504H128.985V34.1601H136.983Z" fill="#3C8D3A"/>
<path d="M80.83 50.6702V55.5216H79.4777L79.3941 54.3506C79.1339 54.7781 78.7714 55.1034 78.3067 55.3264C77.842 55.5495 77.289 55.661 76.6478 55.661C75.802 55.661 75.0585 55.4751 74.4172 55.1034C73.7852 54.7316 73.2927 54.1926 72.9395 53.4862C72.5863 52.7706 72.4098 51.9202 72.4098 50.9351C72.4098 49.9592 72.5956 49.1135 72.9674 48.3978C73.3391 47.6822 73.8642 47.1339 74.5427 46.7528C75.2212 46.3718 76.0158 46.1813 76.9266 46.1813C77.9117 46.1813 78.711 46.3625 79.3244 46.7249C79.9471 47.0874 80.4396 47.659 80.8021 48.4397L79.0177 49.2064C78.8783 48.7231 78.6273 48.3607 78.2649 48.119C77.9117 47.8774 77.4703 47.7566 76.9405 47.7566C76.1505 47.7566 75.5278 48.0354 75.0724 48.593C74.6263 49.1413 74.4033 49.9174 74.4033 50.9211C74.4033 51.9713 74.6217 52.7659 75.0585 53.305C75.4953 53.844 76.1412 54.1136 76.9963 54.1136C77.6468 54.1136 78.1719 53.9602 78.5716 53.6535C78.9712 53.3375 79.171 52.8821 79.171 52.2873V52.0782H76.7593V50.6702H80.83ZM93.6228 53.9741V55.5216H86.8476V46.3207H88.7714V53.9741H93.6228ZM102.784 46.1813C103.685 46.1813 104.466 46.3718 105.126 46.7528C105.795 47.1339 106.306 47.6822 106.659 48.3978C107.022 49.1042 107.203 49.9453 107.203 50.9211C107.203 51.897 107.022 52.7427 106.659 53.4583C106.306 54.1647 105.795 54.7084 105.126 55.0894C104.466 55.4705 103.685 55.661 102.784 55.661C101.882 55.661 101.097 55.4705 100.428 55.0894C99.7585 54.7084 99.2427 54.1647 98.8802 53.4583C98.5271 52.7427 98.3505 51.897 98.3505 50.9211C98.3505 49.9453 98.5271 49.1042 98.8802 48.3978C99.2427 47.6822 99.7585 47.1339 100.428 46.7528C101.097 46.3718 101.882 46.1813 102.784 46.1813ZM102.784 47.7566C102.003 47.7566 101.399 48.0307 100.971 48.5791C100.553 49.1181 100.344 49.8988 100.344 50.9211C100.344 51.9434 100.553 52.7288 100.971 53.2771C101.399 53.8162 102.003 54.0857 102.784 54.0857C103.555 54.0857 104.15 53.8162 104.568 53.2771C104.996 52.7288 105.209 51.9434 105.209 50.9211C105.209 49.8988 104.996 49.1181 104.568 48.5791C104.15 48.0307 103.555 47.7566 102.784 47.7566ZM113.047 46.3207H117.076C118.173 46.3207 118.99 46.5391 119.529 46.9759C120.069 47.4034 120.338 48.0214 120.338 48.83C120.338 49.3412 120.185 49.7873 119.878 50.1683C119.571 50.5401 119.139 50.7724 118.582 50.8654V50.8793C119.213 50.9722 119.701 51.2139 120.045 51.6042C120.398 51.9853 120.575 52.45 120.575 52.9983C120.575 53.7976 120.287 54.4203 119.711 54.8664C119.134 55.3032 118.303 55.5216 117.215 55.5216H113.047V46.3207ZM116.825 50.1823C117.838 50.1823 118.345 49.7873 118.345 48.9973C118.345 48.2073 117.838 47.8123 116.825 47.8123H114.915V50.1823H116.825ZM117.048 54.0717C117.559 54.0717 117.94 53.9695 118.191 53.765C118.451 53.5513 118.582 53.2492 118.582 52.8589C118.582 52.4685 118.451 52.1711 118.191 51.9667C117.94 51.7622 117.559 51.66 117.048 51.66H114.915V54.0717H117.048ZM131.477 53.2771H127.922L127.169 55.5216H125.204L128.563 46.3207H130.864L134.223 55.5216H132.23L131.477 53.2771ZM131.003 51.8552L130.125 49.2622L129.706 47.8681H129.679L129.288 49.2343L128.41 51.8552H131.003ZM146.267 53.9741V55.5216H139.491V46.3207H141.415V53.9741H146.267Z" fill="#3C8D3A"/>
</svg>
