<svg width="202" height="63" viewBox="0 0 202 63" fill="none" xmlns="http://www.w3.org/2000/svg">
<path d="M50.9125 16.2977C48.8454 18.9431 46.4891 21.3427 43.8872 23.4676C43.8582 23.4821 43.8438 23.511 43.8293 23.5544C43.8149 23.5833 43.8004 23.6122 43.8004 23.6555V56.6284C43.8004 56.8886 43.7137 57.1488 43.5547 57.3657C43.3957 57.5825 43.1788 57.7415 42.9186 57.8138L42.8897 57.8282C42.7018 57.8861 42.4994 57.9005 42.3115 57.8716C42.1236 57.8427 41.9357 57.7704 41.7767 57.6548C41.6177 57.5391 41.4876 57.3801 41.4008 57.2066C41.3141 57.0332 41.2707 56.8308 41.2707 56.6429V25.8961C41.2707 25.8528 41.2563 25.8094 41.2418 25.7805C41.2129 25.7516 41.184 25.7082 41.1551 25.6938C41.1117 25.6793 41.0828 25.6649 41.0394 25.6649C40.9961 25.6649 40.9527 25.6793 40.9238 25.7082C37.4834 28.0789 33.725 29.9581 29.7786 31.3025C29.7353 31.3169 29.6919 31.3458 29.663 31.3892C29.6341 31.4326 29.6196 31.4759 29.6196 31.5193V58.1462C29.6196 58.3342 29.5763 58.5076 29.504 58.6811C29.4317 58.8546 29.3161 58.9991 29.1715 59.1148C29.027 59.2304 28.868 59.3171 28.68 59.3605C28.5066 59.4039 28.3186 59.4039 28.1307 59.375L28.0874 59.3605C27.9862 59.3461 27.8994 59.3171 27.8127 59.2738C27.3501 59.0569 27.0899 58.6088 27.0899 58.1462C27.0899 55.154 27.1044 47.695 27.1044 44.7027V32.43C27.1044 32.4011 27.0899 32.3577 27.0755 32.3288C27.061 32.2999 27.0321 32.271 27.0032 32.2421C26.9743 32.2132 26.9454 32.1987 26.902 32.1987C26.8731 32.1987 26.8297 32.1987 26.8008 32.1987L26.6852 32.2276C23.4616 33.0805 20.5994 34.9742 18.5612 37.6051C16.523 40.2504 15.4244 43.4884 15.4244 46.8276V51.2076C15.4244 51.4534 15.3521 51.6847 15.222 51.9015C15.0919 52.1039 14.904 52.2629 14.6727 52.3641C14.4414 52.4653 14.1957 52.4942 13.9644 52.4508C13.7186 52.4074 13.5018 52.2918 13.3283 52.1328C8.37012 47.3625 5.21883 41.031 4.40933 34.208C3.59982 27.385 5.17546 20.4898 8.89052 14.6932C12.5911 8.89653 18.1854 4.57435 24.7337 2.4494C31.2386 0.309992 38.3074 0.512368 44.7111 3.02762C39.6662 0.628012 34.0864 -0.369414 28.521 0.122071C22.9557 0.613557 17.6361 2.5795 13.0971 5.83197C8.55804 9.08445 4.97309 13.4789 2.70358 18.5817C0.434076 23.67 -0.433251 29.2787 0.202789 34.8296C0.838829 40.3805 2.94932 45.6423 6.30299 50.109C9.65665 54.5613 14.1523 58.0451 19.3129 60.17C24.4735 62.3094 30.1111 63.0177 35.6331 62.2371C41.1551 61.4566 46.3735 59.216 50.7535 55.7467C51.4185 55.2985 52.3725 54.4601 53.2398 53.6506C54.6131 52.393 55.3937 50.615 55.3937 48.7647V17.7722C55.3937 15.4159 52.4159 14.3896 50.9559 16.2399C50.9414 16.2688 50.927 16.2833 50.9125 16.2977Z" fill="#3C8D3A"/>
<path d="M81.474 13.1937V23.4481H79.0612L78.9405 20.8242C78.3574 21.7893 77.5532 22.5232 76.5277 23.0259C75.5224 23.5084 74.306 23.7497 72.8784 23.7497C71.0286 23.7497 69.41 23.3375 68.0226 22.5132C66.6353 21.6888 65.5596 20.5126 64.7955 18.9844C64.0516 17.4362 63.6796 15.6065 63.6796 13.4953C63.6796 11.4043 64.0717 9.59465 64.8558 8.06655C65.6601 6.51834 66.7861 5.33205 68.2338 4.50768C69.6814 3.6632 71.3603 3.24096 73.2705 3.24096C75.3213 3.24096 76.9801 3.62299 78.2469 4.38704C79.5337 5.15109 80.5692 6.33738 81.3533 7.94591L78.3675 9.36343C77.9855 8.27767 77.3622 7.4533 76.4976 6.89031C75.633 6.32733 74.5673 6.04583 73.3006 6.04583C71.4106 6.04583 69.8925 6.70935 68.7465 8.03639C67.6205 9.34332 67.0575 11.163 67.0575 13.4953C67.0575 15.9081 67.5903 17.7579 68.656 19.0448C69.7216 20.3316 71.2699 20.975 73.3006 20.975C74.8689 20.975 76.1457 20.5829 77.1309 19.7988C78.1162 19.0146 78.6088 17.8786 78.6088 16.3907V15.8177H72.8181V13.1937H81.474ZM83.9058 8.36815H86.6504L86.952 11.0825C87.7965 9.07188 89.3748 8.06655 91.6871 8.06655C92.3908 8.06655 92.9438 8.16708 93.3459 8.36815L92.8935 11.2032C92.3908 11.0222 91.7776 10.9317 91.0538 10.9317C90.3902 10.9317 89.7569 11.1027 89.1537 11.4445C88.5505 11.7863 88.0579 12.299 87.6758 12.9826C87.3139 13.6662 87.133 14.4906 87.133 15.4557V23.4481H83.9058V8.36815ZM100.294 8.06655C101.762 8.06655 103.058 8.3782 104.184 9.00151C105.31 9.62481 106.185 10.5296 106.808 11.7159C107.452 12.9022 107.773 14.2996 107.773 15.9081C107.773 17.5167 107.452 18.9141 106.808 20.1004C106.185 21.2867 105.31 22.1915 104.184 22.8148C103.058 23.4381 101.762 23.7497 100.294 23.7497C98.826 23.7497 97.5191 23.4381 96.373 22.8148C95.247 22.1915 94.3623 21.2867 93.7189 20.1004C93.0956 18.9141 92.7839 17.5167 92.7839 15.9081C92.7839 14.2996 93.0956 12.9022 93.7189 11.7159C94.3623 10.5296 95.247 9.62481 96.373 9.00151C97.5191 8.3782 98.826 8.06655 100.294 8.06655ZM100.294 10.6C98.9466 10.6 97.891 11.0624 97.127 11.9873C96.383 12.9122 96.0111 14.2192 96.0111 15.9081C96.0111 17.5971 96.383 18.904 97.127 19.8289C97.891 20.7538 98.9466 21.2163 100.294 21.2163C101.621 21.2163 102.656 20.7538 103.4 19.8289C104.164 18.904 104.546 17.5971 104.546 15.9081C104.546 14.2192 104.164 12.9122 103.4 11.9873C102.656 11.0624 101.621 10.6 100.294 10.6ZM131.81 8.36815L126.743 23.4481H123.214L119.414 12.2588L115.825 23.4481H112.296L107.26 8.36815H110.728L114.166 20.2813L117.906 8.36815H121.133L124.873 20.2813L128.311 8.36815H131.81ZM145.524 25.2276C144.86 26.9567 144.106 28.1732 143.262 28.8769C142.438 29.5806 141.352 29.9325 140.005 29.9325C138.557 29.9325 137.351 29.5806 136.386 28.8769L137.17 26.3736C137.894 27.017 138.768 27.3388 139.794 27.3388C140.397 27.3388 140.899 27.1779 141.302 26.8562C141.724 26.5546 142.096 25.9916 142.418 25.1672L143.081 23.5386L141.483 19.7988L136.778 8.36815H140.397L143.745 17.8384L144.619 20.6734L145.614 17.5669L148.781 8.36815H152.129L145.524 25.2276ZM159.076 8.06655C160.544 8.06655 161.841 8.3782 162.967 9.00151C164.093 9.62481 164.967 10.5296 165.591 11.7159C166.234 12.9022 166.556 14.2996 166.556 15.9081C166.556 17.5167 166.234 18.9141 165.591 20.1004C164.967 21.2867 164.093 22.1915 162.967 22.8148C161.841 23.4381 160.544 23.7497 159.076 23.7497C157.608 23.7497 156.301 23.4381 155.155 22.8148C154.029 22.1915 153.145 21.2867 152.501 20.1004C151.878 18.9141 151.566 17.5167 151.566 15.9081C151.566 14.2996 151.878 12.9022 152.501 11.7159C153.145 10.5296 154.029 9.62481 155.155 9.00151C156.301 8.3782 157.608 8.06655 159.076 8.06655ZM159.076 10.6C157.729 10.6 156.673 11.0624 155.909 11.9873C155.165 12.9122 154.793 14.2192 154.793 15.9081C154.793 17.5971 155.165 18.904 155.909 19.8289C156.673 20.7538 157.729 21.2163 159.076 21.2163C160.403 21.2163 161.439 20.7538 162.183 19.8289C162.947 18.904 163.329 17.5971 163.329 15.9081C163.329 14.2192 162.947 12.9122 162.183 11.9873C161.439 11.0624 160.403 10.6 159.076 10.6ZM173.722 23.7497C172.114 23.7497 170.797 23.3074 169.771 22.4227C168.746 21.5179 168.233 20.1506 168.233 18.3209V8.36815H171.46V17.5066C171.46 18.8135 171.732 19.7384 172.274 20.2813C172.837 20.8242 173.672 21.0956 174.778 21.0956C175.884 21.0956 176.819 20.7136 177.583 19.9496C178.347 19.1855 178.729 18.0495 178.729 16.5415V8.36815H181.956V23.4481H179.121L178.97 21.0052C177.985 22.8349 176.235 23.7497 173.722 23.7497ZM184.735 8.36815H187.48L187.782 11.0825C188.626 9.07188 190.204 8.06655 192.517 8.06655C193.22 8.06655 193.773 8.16708 194.176 8.36815L193.723 11.2032C193.22 11.0222 192.607 10.9317 191.883 10.9317C191.22 10.9317 190.586 11.1027 189.983 11.4445C189.38 11.7863 188.887 12.299 188.505 12.9826C188.144 13.6662 187.963 14.4906 187.963 15.4557V23.4481H184.735V8.36815ZM64.7955 28.5426H72.6371C74.9695 28.5426 76.6986 29.0151 77.8246 29.9601C78.9707 30.9051 79.5437 32.2522 79.5437 34.0015C79.5437 35.0873 79.2321 36.0323 78.6088 36.8365C77.9855 37.6408 77.1108 38.1435 75.9849 38.3445V38.3747C77.2315 38.5758 78.2167 39.0985 78.9405 39.943C79.6845 40.7875 80.0564 41.7828 80.0564 42.9289C80.0564 44.658 79.4231 46.0152 78.1564 47.0004C76.8897 47.9656 75.0901 48.4481 72.7577 48.4481H64.7955V28.5426ZM72.3958 37.108C74.9293 37.108 76.196 36.1328 76.196 34.1825C76.196 32.2321 74.9293 31.257 72.3958 31.257H67.9623V37.108H72.3958ZM72.9085 45.7639C74.1552 45.7639 75.1002 45.5126 75.7436 45.0099C76.387 44.4871 76.7087 43.7432 76.7087 42.7781C76.7087 41.8129 76.387 41.079 75.7436 40.5764C75.1002 40.0536 74.1552 39.7922 72.9085 39.7922H67.9623V45.7639H72.9085ZM87.4188 48.7497C85.8102 48.7497 84.4933 48.3074 83.4678 47.4227C82.4424 46.5179 81.9297 45.1506 81.9297 43.3209V33.3682H85.1568V42.5066C85.1568 43.8135 85.4282 44.7384 85.9711 45.2813C86.5341 45.8242 87.3685 46.0956 88.4744 46.0956C89.5802 46.0956 90.5152 45.7136 91.2792 44.9496C92.0433 44.1855 92.4253 43.0495 92.4253 41.5415V33.3682H95.6524V48.4481H92.8174L92.6666 46.0052C91.6814 47.8349 89.9321 48.7497 87.4188 48.7497ZM104.162 48.7497C102.654 48.7497 101.277 48.4582 100.031 47.8751C98.784 47.292 97.7987 46.4676 97.0749 45.402L99.3067 43.4717C99.7692 44.3162 100.423 44.9797 101.267 45.4623C102.112 45.9448 103.097 46.1861 104.223 46.1861C105.148 46.1861 105.882 46.0253 106.424 45.7036C106.967 45.3618 107.239 44.9094 107.239 44.3464C107.239 43.9241 107.098 43.5723 106.817 43.2908C106.555 43.0093 106.093 42.7982 105.429 42.6574L102.262 41.9939C100.694 41.6923 99.5581 41.1896 98.8543 40.4859C98.1506 39.7621 97.7987 38.8372 97.7987 37.7112C97.7987 36.8868 98.04 36.1228 98.5226 35.419C99.0252 34.6952 99.7491 34.1221 100.694 33.6999C101.639 33.2777 102.745 33.0665 104.012 33.0665C105.5 33.0665 106.776 33.338 107.842 33.8809C108.928 34.4036 109.752 35.1576 110.315 36.1429L108.083 38.0128C107.701 37.2487 107.148 36.6656 106.424 36.2635C105.701 35.8413 104.916 35.6301 104.072 35.6301C103.107 35.6301 102.353 35.8111 101.81 36.173C101.267 36.5148 100.996 36.9672 100.996 37.5302C100.996 37.9525 101.146 38.3144 101.448 38.616C101.77 38.8975 102.313 39.1186 103.077 39.2795L106.515 40.0033C107.902 40.2848 108.908 40.7573 109.531 41.4209C110.154 42.0643 110.466 42.8886 110.466 43.894C110.466 45.3618 109.893 46.538 108.747 47.4227C107.621 48.3074 106.093 48.7497 104.162 48.7497ZM113.762 30.8347C113.079 30.8347 112.546 30.6638 112.164 30.322C111.782 29.9601 111.591 29.4574 111.591 28.814C111.591 28.1706 111.782 27.678 112.164 27.3362C112.546 26.9943 113.079 26.8234 113.762 26.8234C114.446 26.8234 114.969 26.9943 115.331 27.3362C115.713 27.678 115.904 28.1706 115.904 28.814C115.904 29.4574 115.713 29.9601 115.331 30.322C114.969 30.6638 114.446 30.8347 113.762 30.8347ZM115.361 48.4481H112.134V33.3682H115.361V48.4481ZM126.261 33.0665C127.93 33.0665 129.287 33.5491 130.333 34.5142C131.398 35.4793 131.931 36.8667 131.931 38.6763V48.4481H128.704V39.6716C128.704 37.0376 127.628 35.7206 125.477 35.7206C124.351 35.7206 123.386 36.1127 122.581 36.8969C121.777 37.6609 121.375 38.8372 121.375 40.4256V48.4481H118.148V33.3682H121.013L121.164 35.9921C121.647 35.0068 122.33 34.2729 123.215 33.7904C124.1 33.3078 125.115 33.0665 126.261 33.0665ZM147.92 40.0033C147.92 40.6467 147.88 41.2701 147.799 41.8733H136.761C136.902 43.2606 137.354 44.3263 138.118 45.0702C138.882 45.8142 139.887 46.1861 141.134 46.1861C142.099 46.1861 142.893 46.0052 143.517 45.6432C144.16 45.2612 144.673 44.7183 145.055 44.0146L147.618 45.221C147.096 46.3269 146.261 47.1915 145.115 47.8148C143.989 48.4381 142.682 48.7497 141.194 48.7497C139.686 48.7497 138.359 48.4381 137.213 47.8148C136.067 47.1915 135.172 46.2867 134.529 45.1004C133.906 43.9141 133.594 42.5167 133.594 40.9081C133.594 39.2996 133.906 37.9022 134.529 36.7159C135.152 35.5296 136.027 34.6248 137.153 34.0015C138.279 33.3782 139.566 33.0665 141.013 33.0665C142.441 33.0665 143.668 33.3681 144.693 33.9713C145.739 34.5745 146.533 35.3989 147.076 36.4445C147.639 37.49 147.92 38.6763 147.92 40.0033ZM140.953 35.6301C139.827 35.6301 138.902 35.9519 138.178 36.5953C137.475 37.2387 137.022 38.1736 136.821 39.4001H144.753C144.673 38.1937 144.301 37.2688 143.637 36.6254C142.974 35.9619 142.079 35.6301 140.953 35.6301ZM155.464 48.7497C153.956 48.7497 152.579 48.4582 151.332 47.8751C150.085 47.292 149.1 46.4676 148.376 45.402L150.608 43.4717C151.071 44.3162 151.724 44.9797 152.568 45.4623C153.413 45.9448 154.398 46.1861 155.524 46.1861C156.449 46.1861 157.183 46.0253 157.726 45.7036C158.269 45.3618 158.54 44.9094 158.54 44.3464C158.54 43.9241 158.399 43.5723 158.118 43.2908C157.857 43.0093 157.394 42.7982 156.731 42.6574L153.564 41.9939C151.995 41.6923 150.859 41.1896 150.156 40.4859C149.452 39.7621 149.1 38.8372 149.1 37.7112C149.1 36.8868 149.341 36.1228 149.824 35.419C150.327 34.6952 151.05 34.1221 151.995 33.6999C152.94 33.2777 154.046 33.0665 155.313 33.0665C156.801 33.0665 158.078 33.338 159.143 33.8809C160.229 34.4036 161.053 35.1576 161.616 36.1429L159.385 38.0128C159.003 37.2487 158.45 36.6656 157.726 36.2635C157.002 35.8413 156.218 35.6301 155.373 35.6301C154.408 35.6301 153.654 35.8111 153.111 36.173C152.568 36.5148 152.297 36.9672 152.297 37.5302C152.297 37.9525 152.448 38.3144 152.749 38.616C153.071 38.8975 153.614 39.1186 154.378 39.2795L157.816 40.0033C159.204 40.2848 160.209 40.7573 160.832 41.4209C161.456 42.0643 161.767 42.8886 161.767 43.894C161.767 45.3618 161.194 46.538 160.048 47.4227C158.922 48.3074 157.394 48.7497 155.464 48.7497ZM169.165 48.7497C167.657 48.7497 166.28 48.4582 165.033 47.8751C163.787 47.292 162.802 46.4676 162.078 45.402L164.31 43.4717C164.772 44.3162 165.426 44.9797 166.27 45.4623C167.115 45.9448 168.1 46.1861 169.226 46.1861C170.151 46.1861 170.885 46.0253 171.427 45.7036C171.97 45.3618 172.242 44.9094 172.242 44.3464C172.242 43.9241 172.101 43.5723 171.819 43.2908C171.558 43.0093 171.096 42.7982 170.432 42.6574L167.265 41.9939C165.697 41.6923 164.561 41.1896 163.857 40.4859C163.154 39.7621 162.802 38.8372 162.802 37.7112C162.802 36.8868 163.043 36.1228 163.525 35.419C164.028 34.6952 164.752 34.1221 165.697 33.6999C166.642 33.2777 167.748 33.0665 169.015 33.0665C170.502 33.0665 171.779 33.338 172.845 33.8809C173.931 34.4036 174.755 35.1576 175.318 36.1429L173.086 38.0128C172.704 37.2487 172.151 36.6656 171.427 36.2635C170.704 35.8413 169.919 35.6301 169.075 35.6301C168.11 35.6301 167.356 35.8111 166.813 36.173C166.27 36.5148 165.999 36.9672 165.999 37.5302C165.999 37.9525 166.149 38.3144 166.451 38.616C166.773 38.8975 167.316 39.1186 168.08 39.2795L171.518 40.0033C172.905 40.2848 173.911 40.7573 174.534 41.4209C175.157 42.0643 175.469 42.8886 175.469 43.894C175.469 45.3618 174.896 46.538 173.75 47.4227C172.624 48.3074 171.096 48.7497 169.165 48.7497Z" fill="#3C8D3A"/>
<path d="M70.104 56.9608V60.097H69.2299L69.1758 59.34C69.0075 59.6164 68.7732 59.8267 68.4728 59.9709C68.1724 60.1151 67.8149 60.1872 67.4004 60.1872C66.8536 60.1872 66.373 60.067 65.9584 59.8267C65.5498 59.5864 65.2314 59.2379 65.0031 58.7813C64.7748 58.3186 64.6606 57.7689 64.6606 57.132C64.6606 56.5012 64.7808 55.9544 65.0211 55.4918C65.2615 55.0291 65.6009 54.6747 66.0395 54.4283C66.4781 54.182 66.9918 54.0588 67.5806 54.0588C68.2175 54.0588 68.7342 54.176 69.1307 54.4103C69.5333 54.6446 69.8517 55.0141 70.086 55.5188L68.9324 56.0145C68.8423 55.7021 68.6801 55.4677 68.4458 55.3115C68.2175 55.1553 67.9321 55.0772 67.5896 55.0772C67.0789 55.0772 66.6764 55.2575 66.382 55.618C66.0936 55.9724 65.9494 56.4741 65.9494 57.123C65.9494 57.8019 66.0906 58.3156 66.373 58.6641C66.6553 59.0126 67.0729 59.1868 67.6257 59.1868C68.0462 59.1868 68.3857 59.0877 68.6441 58.8894C68.9024 58.6851 69.0316 58.3907 69.0316 58.0062V57.871H67.4725V56.9608H70.104ZM78.3742 59.0967V60.097H73.9942V54.149H75.2379V59.0967H78.3742ZM84.2964 54.0588C84.8792 54.0588 85.3839 54.182 85.8104 54.4283C86.243 54.6747 86.5735 55.0291 86.8018 55.4918C87.0361 55.9484 87.1533 56.4921 87.1533 57.123C87.1533 57.7539 87.0361 58.3006 86.8018 58.7632C86.5735 59.2199 86.243 59.5713 85.8104 59.8177C85.3839 60.064 84.8792 60.1872 84.2964 60.1872C83.7136 60.1872 83.2059 60.064 82.7733 59.8177C82.3407 59.5713 82.0073 59.2199 81.773 58.7632C81.5446 58.3006 81.4305 57.7539 81.4305 57.123C81.4305 56.4921 81.5446 55.9484 81.773 55.4918C82.0073 55.0291 82.3407 54.6747 82.7733 54.4283C83.2059 54.182 83.7136 54.0588 84.2964 54.0588ZM84.2964 55.0772C83.7917 55.0772 83.4012 55.2545 83.1248 55.6089C82.8544 55.9574 82.7192 56.4621 82.7192 57.123C82.7192 57.7839 82.8544 58.2916 83.1248 58.6461C83.4012 58.9945 83.7917 59.1688 84.2964 59.1688C84.7951 59.1688 85.1796 58.9945 85.45 58.6461C85.7263 58.2916 85.8645 57.7839 85.8645 57.123C85.8645 56.4621 85.7263 55.9574 85.45 55.6089C85.1796 55.2545 84.7951 55.0772 84.2964 55.0772ZM90.9313 54.149H93.5359C94.2448 54.149 94.7735 54.2901 95.122 54.5725C95.4705 54.8489 95.6447 55.2484 95.6447 55.7712C95.6447 56.1016 95.5456 56.39 95.3473 56.6363C95.1491 56.8767 94.8697 57.0269 94.5092 57.0869V57.096C94.9177 57.156 95.2332 57.3123 95.4555 57.5646C95.6838 57.8109 95.7979 58.1113 95.7979 58.4658C95.7979 58.9825 95.6117 59.3851 95.2392 59.6735C94.8667 59.9559 94.3289 60.097 93.626 60.097H90.9313V54.149ZM93.3736 56.6453C94.0285 56.6453 94.356 56.39 94.356 55.8793C94.356 55.3686 94.0285 55.1133 93.3736 55.1133H92.139V56.6453H93.3736ZM93.5178 59.1598C93.8483 59.1598 94.0946 59.0937 94.2568 58.9615C94.4251 58.8233 94.5092 58.628 94.5092 58.3757C94.5092 58.1234 94.4251 57.9311 94.2568 57.7989C94.0946 57.6667 93.8483 57.6006 93.5178 57.6006H92.139V59.1598H93.5178ZM102.846 58.6461H100.548L100.061 60.097H98.7902L100.962 54.149H102.449L104.621 60.097H103.332L102.846 58.6461ZM102.539 57.7268L101.971 56.0505L101.701 55.1493H101.683L101.431 56.0325L100.863 57.7268H102.539ZM112.407 59.0967V60.097H108.027V54.149H109.271V59.0967H112.407Z" fill="#3C8D3A"/>
</svg>
