<svg width="23" height="20" viewBox="0 0 23 20" fill="none" xmlns="http://www.w3.org/2000/svg">
<path d="M22.991 1.51342C22.991 1.33608 22.9442 1.16191 22.8555 1.0086C22.7668 0.855296 22.6393 0.72831 22.4859 0.640547C22.3325 0.552784 22.1588 0.50737 21.9823 0.508919C21.8058 0.510467 21.6328 0.558923 21.481 0.649364C20.8954 0.999819 20.2649 1.26822 19.607 1.4471C18.668 0.637584 17.4703 0.194643 16.233 0.199254C14.8757 0.200889 13.5722 0.732385 12.5977 1.68152C11.6231 2.63066 11.0538 3.92315 11.01 5.2861C8.33379 4.85742 5.90826 3.45404 4.19599 1.34362C4.09282 1.218 3.96112 1.11912 3.81198 1.0553C3.66284 0.991487 3.50063 0.964598 3.33899 0.9769C3.17739 0.990338 3.02147 1.0431 2.88471 1.13062C2.74794 1.21814 2.63443 1.3378 2.55399 1.47926C2.14151 2.20254 1.90463 3.01337 1.86258 3.8459C1.82053 4.67844 1.9745 5.50919 2.31199 6.27072L2.30999 6.27172C2.15798 6.36557 2.03252 6.4971 1.94566 6.65368C1.85881 6.81027 1.81347 6.98666 1.81399 7.16591C1.81239 7.3134 1.82141 7.46081 1.84099 7.60698C1.94311 8.87096 2.50062 10.0541 3.40899 10.9346C3.34735 11.0526 3.30976 11.1819 3.29843 11.3147C3.2871 11.4476 3.30225 11.5813 3.34299 11.7082C3.73897 12.9482 4.58125 13.9951 5.70499 14.644C4.56316 15.0875 3.33029 15.2421 2.11499 15.0941C1.89016 15.066 1.6625 15.1154 1.4693 15.2343C1.27609 15.3532 1.1288 15.5345 1.05153 15.7485C0.974263 15.9624 0.971607 16.1964 1.044 16.4121C1.11639 16.6278 1.25953 16.8124 1.44999 16.9357C3.5402 18.2881 5.97387 19.007 8.45999 19.0064C11.2792 19.0383 14.0299 18.1332 16.2842 16.432C18.5385 14.7307 20.17 12.3286 20.925 9.59932C21.2779 8.41052 21.4581 7.17672 21.46 5.93615L21.459 5.73521C21.9812 5.16936 22.3856 4.50447 22.6487 3.77952C22.9118 3.05456 23.0281 2.28414 22.991 1.51342V1.51342ZM19.685 4.74054C19.5196 4.93668 19.4358 5.18927 19.451 5.44585C19.461 5.61163 19.46 5.77841 19.46 5.93615C19.4579 6.98424 19.305 8.02652 19.006 9.03066C18.3897 11.3532 17.0154 13.4007 15.1033 14.8452C13.1912 16.2898 10.8518 17.0479 8.45999 16.998C7.60112 16.9981 6.74523 16.8966 5.90999 16.6956C6.9753 16.3504 7.97135 15.8184 8.85199 15.1242C9.01438 14.9959 9.13325 14.8203 9.19226 14.6214C9.25127 14.4225 9.24752 14.2101 9.18155 14.0135C9.11557 13.8168 8.99059 13.6455 8.82378 13.5231C8.65698 13.4007 8.45653 13.3331 8.24999 13.3298C7.41872 13.3167 6.62495 12.9799 6.03599 12.3904C6.18532 12.3623 6.33366 12.3271 6.48099 12.2849C6.69702 12.2232 6.88608 12.0902 7.01773 11.9074C7.14938 11.7246 7.21594 11.5026 7.2067 11.2772C7.19746 11.0517 7.11296 10.8359 6.9668 10.6646C6.82064 10.4933 6.62133 10.3764 6.40099 10.3328C5.91848 10.237 5.46446 10.0307 5.07422 9.72996C4.68398 9.4292 4.36805 9.04205 4.15099 8.59863C4.33174 8.62345 4.51365 8.63888 4.69599 8.64485C4.91267 8.64843 5.12486 8.58258 5.30179 8.45685C5.47871 8.33111 5.61118 8.15203 5.67999 7.94557C5.74604 7.73736 5.74272 7.51319 5.67054 7.30704C5.59836 7.10089 5.46125 6.92401 5.27999 6.80321C4.83993 6.5089 4.4794 6.1095 4.2307 5.64081C3.98201 5.17211 3.85292 4.64876 3.85499 4.11762C3.85499 4.05131 3.85699 3.984 3.86099 3.91869C6.10245 6.01917 9.0099 7.25736 12.071 7.41508C12.2256 7.42098 12.3794 7.39148 12.521 7.32881C12.6625 7.26615 12.788 7.17197 12.888 7.05339C12.987 6.93408 13.0572 6.79332 13.0929 6.64217C13.1286 6.49103 13.129 6.33362 13.094 6.1823C13.0367 5.94239 13.0075 5.69658 13.007 5.44987C13.008 4.59058 13.3483 3.76678 13.953 3.15917C14.5578 2.55156 15.3777 2.20974 16.233 2.20867C16.6731 2.20737 17.1088 2.29776 17.5124 2.47415C17.916 2.65054 18.2788 2.90909 18.578 3.23348C18.6933 3.35819 18.8385 3.45117 18.9997 3.50357C19.1609 3.55598 19.3328 3.56607 19.499 3.53288C19.9098 3.45265 20.3147 3.34457 20.711 3.20937C20.4408 3.76479 20.0955 4.28006 19.685 4.74054V4.74054Z" fill="#1E1E1E"/>
</svg>
