<svg width="36" height="36" viewBox="0 0 36 36" fill="none" xmlns="http://www.w3.org/2000/svg">
<g clip-path="url(#clip0_222_227)">
<path d="M34.875 34.3125H1.125C0.975816 34.3125 0.832742 34.3718 0.727252 34.4773C0.621763 34.5827 0.5625 34.7258 0.5625 34.875C0.5625 35.0242 0.621763 35.1673 0.727252 35.2727C0.832742 35.3782 0.975816 35.4375 1.125 35.4375H34.875C35.0242 35.4375 35.1673 35.3782 35.2727 35.2727C35.3782 35.1673 35.4375 35.0242 35.4375 34.875C35.4375 34.7258 35.3782 34.5827 35.2727 34.4773C35.1673 34.3718 35.0242 34.3125 34.875 34.3125Z" fill="#3C8D3A"/>
<path d="M6.75 21.9375H2.25V33.1875H6.75V21.9375Z" fill="#3C8D3A"/>
<path d="M15.75 24.1875H11.25V33.1875H15.75V24.1875Z" fill="#3C8D3A"/>
<path d="M24.75 16.3125H20.25V33.1875H24.75V16.3125Z" fill="#3C8D3A"/>
<path d="M33.75 7.875H29.25V33.1875H33.75V7.875Z" fill="#3C8D3A"/>
<path d="M24.4744 8.48244L29.5706 3.70119L28.8394 2.84619L23.7037 7.66682C24.027 7.86729 24.2925 8.14836 24.4744 8.48244V8.48244Z" fill="#3C8D3A"/>
<path d="M15.5081 16.4306L21.2287 11.4187C20.9135 11.2044 20.6595 10.9117 20.4919 10.5693L14.7712 15.5812C15.0865 15.7955 15.3405 16.0882 15.5081 16.4306V16.4306Z" fill="#3C8D3A"/>
<path d="M11.25 17.4375C11.2509 17.0627 11.3436 16.6938 11.52 16.3631C6.52499 15.1144 6.74999 15.1313 6.74999 15.1875C6.74921 15.563 6.65445 15.9324 6.47437 16.2619C11.475 17.5106 11.25 17.4938 11.25 17.4375Z" fill="#3C8D3A"/>
<path d="M4.5 16.3125C5.12132 16.3125 5.625 15.8088 5.625 15.1875C5.625 14.5662 5.12132 14.0625 4.5 14.0625C3.87868 14.0625 3.375 14.5662 3.375 15.1875C3.375 15.8088 3.87868 16.3125 4.5 16.3125Z" fill="#3C8D3A"/>
<path d="M13.5 18.5625C14.1213 18.5625 14.625 18.0588 14.625 17.4375C14.625 16.8162 14.1213 16.3125 13.5 16.3125C12.8787 16.3125 12.375 16.8162 12.375 17.4375C12.375 18.0588 12.8787 18.5625 13.5 18.5625Z" fill="#3C8D3A"/>
<path d="M22.5 10.6875C23.1213 10.6875 23.625 10.1838 23.625 9.5625C23.625 8.94118 23.1213 8.4375 22.5 8.4375C21.8787 8.4375 21.375 8.94118 21.375 9.5625C21.375 10.1838 21.8787 10.6875 22.5 10.6875Z" fill="#3C8D3A"/>
<path d="M32.0625 0.5625L28.4231 0.61875L31.5056 4.24125L32.0625 0.5625Z" fill="#3C8D3A"/>
</g>
<defs>
<clipPath id="clip0_222_227">
<rect width="36" height="36" fill="white"/>
</clipPath>
</defs>
</svg>
