<svg width="36" height="36" viewBox="0 0 36 36" fill="none" xmlns="http://www.w3.org/2000/svg">
<path d="M22.1963 32.625L22.95 31.5H13.05L13.8038 32.625H22.1963Z" fill="#3C8D3A"/>
<path d="M34.3125 31.5H24.1875C24.1866 31.6103 24.1534 31.7179 24.0919 31.8094C22.8994 33.5925 22.8937 33.75 22.5 33.75C12.8025 33.75 13.2638 33.8569 13.0331 33.4969C11.8406 31.7081 11.8125 31.725 11.8125 31.5H1.6875C1.38913 31.5 1.10298 31.6185 0.892005 31.8295C0.681026 32.0405 0.5625 32.3266 0.5625 32.625V33.75C0.5625 34.3467 0.799553 34.919 1.22151 35.341C1.64347 35.7629 2.21576 36 2.8125 36H33.1875C33.7842 36 34.3565 35.7629 34.7785 35.341C35.2004 34.919 35.4375 34.3467 35.4375 33.75V32.625C35.4375 32.3266 35.319 32.0405 35.108 31.8295C34.897 31.6185 34.6109 31.5 34.3125 31.5Z" fill="#3C8D3A"/>
<path d="M14.625 14.625H11.6494C10.499 14.6239 9.38273 14.2345 8.48128 13.5199C7.57983 12.8053 6.94602 11.8073 6.6825 10.6875H5.625V27.5625H30.375V10.6875H29.43C29.3385 11.7604 28.8481 12.76 28.0556 13.4889C27.2631 14.2179 26.2261 14.6233 25.1494 14.625H21.375V19.125H27C27.1492 19.125 27.2923 19.1843 27.3977 19.2898C27.5032 19.3952 27.5625 19.5383 27.5625 19.6875V22.6012C27.9378 22.7339 28.2541 22.995 28.4555 23.3384C28.657 23.6818 28.7305 24.0853 28.6632 24.4776C28.5959 24.8699 28.392 25.2259 28.0877 25.4824C27.7833 25.739 27.3981 25.8797 27 25.8797C26.6019 25.8797 26.2167 25.739 25.9123 25.4824C25.608 25.2259 25.4041 24.8699 25.3368 24.4776C25.2695 24.0853 25.343 23.6818 25.5445 23.3384C25.7459 22.995 26.0622 22.7339 26.4375 22.6012V20.25H20.8125C20.6633 20.25 20.5202 20.1907 20.4148 20.0852C20.3093 19.9798 20.25 19.8367 20.25 19.6875V14.625H18.5625V22.6012C18.9378 22.7339 19.2541 22.995 19.4555 23.3384C19.657 23.6818 19.7305 24.0853 19.6632 24.4776C19.5959 24.8699 19.392 25.2259 19.0877 25.4824C18.7833 25.739 18.3981 25.8797 18 25.8797C17.6019 25.8797 17.2167 25.739 16.9123 25.4824C16.608 25.2259 16.4041 24.8699 16.3368 24.4776C16.2695 24.0853 16.343 23.6818 16.5445 23.3384C16.7459 22.995 17.0622 22.7339 17.4375 22.6012V14.625H15.75V19.6875C15.75 19.8367 15.6907 19.9798 15.5852 20.0852C15.4798 20.1907 15.3367 20.25 15.1875 20.25H9.5625V22.6012C9.93781 22.7339 10.2541 22.995 10.4555 23.3384C10.657 23.6818 10.7305 24.0853 10.6632 24.4776C10.5959 24.8699 10.392 25.2259 10.0877 25.4824C9.78333 25.739 9.39807 25.8797 9 25.8797C8.60193 25.8797 8.21667 25.739 7.91232 25.4824C7.60797 25.2259 7.40412 24.8699 7.3368 24.4776C7.26949 24.0853 7.34304 23.6818 7.54446 23.3384C7.74588 22.995 8.06219 22.7339 8.4375 22.6012V19.6875C8.4375 19.5383 8.49676 19.3952 8.60225 19.2898C8.70774 19.1843 8.85082 19.125 9 19.125H14.625V14.625Z" fill="#3C8D3A"/>
<path d="M8.4375 24.1875C8.4375 24.3367 8.49676 24.4798 8.60225 24.5852C8.70774 24.6907 8.85082 24.75 9 24.75C9.14918 24.75 9.29226 24.6907 9.39775 24.5852C9.50324 24.4798 9.5625 24.3367 9.5625 24.1875C9.5625 24.0383 9.50324 23.8952 9.39775 23.7898C9.29226 23.6843 9.14918 23.625 9 23.625C8.85082 23.625 8.70774 23.6843 8.60225 23.7898C8.49676 23.8952 8.4375 24.0383 8.4375 24.1875Z" fill="#3C8D3A"/>
<path d="M18 24.75C18.1492 24.75 18.2923 24.6907 18.3977 24.5852C18.5032 24.4798 18.5625 24.3367 18.5625 24.1875C18.5625 24.0383 18.5032 23.8952 18.3977 23.7898C18.2923 23.6843 18.1492 23.625 18 23.625C17.8508 23.625 17.7077 23.6843 17.6023 23.7898C17.4968 23.8952 17.4375 24.0383 17.4375 24.1875C17.4375 24.3367 17.4968 24.4798 17.6023 24.5852C17.7077 24.6907 17.8508 24.75 18 24.75Z" fill="#3C8D3A"/>
<path d="M33.1875 9.5625C33.1875 9.11495 33.0097 8.68572 32.6932 8.36926C32.3768 8.05279 31.9476 7.875 31.5 7.875H28.6875C29.0414 8.3793 29.2795 8.95552 29.385 9.5625H30.9375C31.0867 9.5625 31.2298 9.62176 31.3352 9.72725C31.4407 9.83274 31.5 9.97582 31.5 10.125V28.125C31.5 28.2742 31.4407 28.4173 31.3352 28.5227C31.2298 28.6282 31.0867 28.6875 30.9375 28.6875H5.0625C4.91332 28.6875 4.77024 28.6282 4.66475 28.5227C4.55926 28.4173 4.5 28.2742 4.5 28.125V10.125C4.5 9.97582 4.55926 9.83274 4.66475 9.72725C4.77024 9.62176 4.91332 9.5625 5.0625 9.5625H6.55312C6.54765 8.98789 6.64284 8.41677 6.83437 7.875H4.5C4.05245 7.875 3.62322 8.05279 3.30676 8.36926C2.99029 8.68572 2.8125 9.11495 2.8125 9.5625V30.375H33.1875V9.5625Z" fill="#3C8D3A"/>
<path d="M27 24.75C27.1492 24.75 27.2923 24.6907 27.3977 24.5852C27.5032 24.4798 27.5625 24.3367 27.5625 24.1875C27.5625 24.0383 27.5032 23.8952 27.3977 23.7898C27.2923 23.6843 27.1492 23.625 27 23.625C26.8508 23.625 26.7077 23.6843 26.6023 23.7898C26.4968 23.8952 26.4375 24.0383 26.4375 24.1875C26.4375 24.3367 26.4968 24.4798 26.6023 24.5852C26.7077 24.6907 26.8508 24.75 27 24.75Z" fill="#3C8D3A"/>
<path d="M11.6493 13.5H25.1493C25.9246 13.5036 26.6742 13.2232 27.2568 12.7118C27.8394 12.2003 28.2146 11.4933 28.3115 10.7242C28.4085 9.95504 28.2204 9.17703 27.7829 8.53707C27.3454 7.89711 26.6887 7.43949 25.9368 7.25063C25.9512 6.83493 25.8716 6.42135 25.704 6.04064C25.5365 5.65994 25.2853 5.32189 24.9691 5.05164C24.6529 4.78139 24.2799 4.58589 23.8777 4.47968C23.4755 4.37346 23.0546 4.35926 22.6462 4.43813C22.3646 3.09382 21.5951 1.90144 20.4862 1.09096C19.3773 0.28049 18.0076 -0.09065 16.6412 0.0491313C15.2749 0.188913 14.0087 0.829713 13.0869 1.84793C12.1651 2.86614 11.653 4.18964 11.6493 5.56313C10.5961 5.56313 9.58601 5.98153 8.84125 6.72628C8.0965 7.47104 7.6781 8.48114 7.6781 9.53438C7.6781 10.5876 8.0965 11.5977 8.84125 12.3425C9.58601 13.0872 10.5961 13.5056 11.6493 13.5056V13.5Z" fill="#3C8D3A"/>
</svg>
