<svg width="36" height="36" viewBox="0 0 36 36" fill="none" xmlns="http://www.w3.org/2000/svg">
<path d="M22.1963 32.625L22.95 31.5H13.05L13.8038 32.625H22.1963Z" fill="#3C8D3A"/>
<path d="M34.3125 31.5H24.1875C24.1866 31.6103 24.1534 31.7179 24.0919 31.8094C22.8994 33.5925 22.8937 33.75 22.5 33.75C12.8025 33.75 13.2638 33.8569 13.0331 33.4969C11.8406 31.7081 11.8125 31.725 11.8125 31.5H1.6875C1.38913 31.5 1.10298 31.6185 0.892005 31.8295C0.681026 32.0405 0.5625 32.3266 0.5625 32.625V33.75C0.5625 34.3467 0.799553 34.919 1.22151 35.341C1.64347 35.7629 2.21576 36 2.8125 36H33.1875C33.7842 36 34.3565 35.7629 34.7785 35.341C35.2004 34.919 35.4375 34.3467 35.4375 33.75V32.625C35.4375 32.3266 35.319 32.0405 35.108 31.8295C34.897 31.6185 34.6109 31.5 34.3125 31.5Z" fill="#3C8D3A"/>
<path d="M5.625 17.8875V27.5625H7.875V18C5.7825 18 5.81063 18.0393 5.625 17.8875Z" fill="#3C8D3A"/>
<path d="M22.5 11.25H20.8125V27.5625H22.5V11.25Z" fill="#3C8D3A"/>
<path d="M22.5 9.5625V7.875H20.7169C22.59 9.74813 22.365 9.5625 22.5 9.5625Z" fill="#3C8D3A"/>
<path d="M30.375 10.6875H28.125V27.5625H30.375V10.6875Z" fill="#3C8D3A"/>
<path d="M15.1875 11.25H13.2694C13.1202 11.25 12.9771 11.1907 12.8716 11.0852C12.7661 10.9798 12.7069 10.8367 12.7069 10.6875H5.625V16.9706L10.2881 12.3075C10.3404 12.2548 10.4026 12.2129 10.4712 12.1844C10.5397 12.1558 10.6132 12.1411 10.6875 12.1411C10.7618 12.1411 10.8353 12.1558 10.9038 12.1844C10.9724 12.2129 11.0346 12.2548 11.0869 12.3075L15.1875 16.4081V11.25Z" fill="#3C8D3A"/>
<path d="M15.1875 18H13.5V27.5625H15.1875V18Z" fill="#3C8D3A"/>
<path d="M33.1875 9.5625C33.1875 9.11495 33.0097 8.68572 32.6932 8.36926C32.3768 8.05279 31.9476 7.875 31.5 7.875H28.125V9.5625H30.9375C31.0867 9.5625 31.2298 9.62176 31.3352 9.72725C31.4407 9.83274 31.5 9.97582 31.5 10.125V28.125C31.5 28.2742 31.4407 28.4173 31.3352 28.5227C31.2298 28.6282 31.0867 28.6875 30.9375 28.6875H5.0625C4.91332 28.6875 4.77024 28.6282 4.66475 28.5227C4.55926 28.4173 4.5 28.2742 4.5 28.125V10.125C4.5 9.97582 4.55926 9.83274 4.66475 9.72725C4.77024 9.62176 4.91332 9.5625 5.0625 9.5625H13.5956L15.2831 7.875H4.5C4.05245 7.875 3.62322 8.05279 3.30676 8.36926C2.99029 8.68572 2.8125 9.11495 2.8125 9.5625V30.375H33.1875V9.5625Z" fill="#3C8D3A"/>
<path d="M16.3125 10.125V27.5625H19.6875V10.125H21.375L18 6.75L14.625 10.125H16.3125Z" fill="#3C8D3A"/>
<path d="M23.625 27.5625H27V3.375H28.6875L25.3125 0L21.9375 3.375H23.625V27.5625Z" fill="#3C8D3A"/>
<path d="M12.375 27.5625V16.875H14.0625L10.6875 13.5L7.3125 16.875H9V27.5625H12.375Z" fill="#3C8D3A"/>
</svg>
